<svg width="35" height="35" viewBox="0 0 35 35" fill="none" xmlns="http://www.w3.org/2000/svg">
<rect x="0.414729" y="0.414729" width="34.0078" height="34.0078" rx="3.73256" stroke="white" stroke-width="0.829457"/>
<path fill-rule="evenodd" clip-rule="evenodd" d="M12.2778 11.2222C12.2778 10.1024 12.7226 9.02848 13.5144 8.23666C14.3063 7.44484 15.3802 7 16.5 7C17.6198 7 18.6937 7.44484 19.4856 8.23666C20.2774 9.02848 20.7222 10.1024 20.7222 11.2222C20.7222 12.342 20.2774 13.416 19.4856 14.2078C18.6937 14.9996 17.6198 15.4444 16.5 15.4444C15.3802 15.4444 14.3063 14.9996 13.5144 14.2078C12.7226 13.416 12.2778 12.342 12.2778 11.2222ZM12.2778 17.5556C10.878 17.5556 9.5356 18.1116 8.54583 19.1014C7.55605 20.0912 7 21.4336 7 22.8333C7 23.6732 7.33363 24.4786 7.9275 25.0725C8.52136 25.6664 9.32681 26 10.1667 26H22.8333C23.6732 26 24.4786 25.6664 25.0725 25.0725C25.6664 24.4786 26 23.6732 26 22.8333C26 21.4336 25.444 20.0912 24.4542 19.1014C23.4644 18.1116 22.122 17.5556 20.7222 17.5556H12.2778Z" fill="white"/>
</svg>
