<svg width="23" height="20" viewBox="0 0 23 20" fill="none" xmlns="http://www.w3.org/2000/svg">
<path d="M4.70455 20C3.88909 20 3.17818 19.5264 2.83318 18.8422L0.104545 8.88551L0 8.42241C0 8.14327 0.110146 7.87556 0.306206 7.67817C0.502267 7.48079 0.768183 7.3699 1.04545 7.3699H5.83364L10.6427 0.454921C10.7391 0.313753 10.8684 0.198488 11.0192 0.119192C11.17 0.0398964 11.3378 -0.00101891 11.508 1.92752e-05C11.6781 0.00105746 11.8455 0.0440175 11.9953 0.125148C12.1452 0.206278 12.273 0.323112 12.3677 0.465446L17.1664 7.3699H21.9545C22.2318 7.3699 22.4977 7.48079 22.6938 7.67817C22.8899 7.87556 23 8.14327 23 8.42241L22.9582 8.72764L20.1668 18.8422C19.8218 19.5264 19.1109 20 18.2955 20H4.70455ZM11.5 2.88621L8.36364 7.3699H14.6364L11.5 2.88621ZM11.5 11.5799C10.9455 11.5799 10.4136 11.8017 10.0215 12.1965C9.62938 12.5912 9.40909 13.1267 9.40909 13.6849C9.40909 14.2432 9.62938 14.7787 10.0215 15.1734C10.4136 15.5682 10.9455 15.79 11.5 15.79C12.0545 15.79 12.5864 15.5682 12.9785 15.1734C13.3706 14.7787 13.5909 14.2432 13.5909 13.6849C13.5909 13.1267 13.3706 12.5912 12.9785 12.1965C12.5864 11.8017 12.0545 11.5799 11.5 11.5799Z" fill="white"/>
</svg>
