<svg width="25" height="22" viewBox="0 0 25 22" fill="none" xmlns="http://www.w3.org/2000/svg">
<path d="M4.6875 5.5C5.30307 5.5 5.91261 5.42887 6.48133 5.29067C7.05004 5.15247 7.56679 4.94991 8.00206 4.69454C8.43734 4.43918 8.78262 4.13602 9.01819 3.80238C9.25375 3.46873 9.375 3.11114 9.375 2.75C9.375 2.38886 9.25375 2.03127 9.01819 1.69762C8.78262 1.36398 8.43734 1.06082 8.00206 0.805456C7.56679 0.550095 7.05004 0.347532 6.48133 0.209331C5.91261 0.071131 5.30307 -5.38133e-09 4.6875 0C3.4443 1.08681e-08 2.25201 0.289731 1.37294 0.805456C0.49386 1.32118 0 2.02065 0 2.75C0 3.47935 0.49386 4.17882 1.37294 4.69454C2.25201 5.21027 3.4443 5.5 4.6875 5.5ZM4.6875 13.75C5.9307 13.75 7.12299 13.4603 8.00206 12.9445C8.88114 12.4288 9.375 11.7293 9.375 11C9.375 10.2707 8.88114 9.57118 8.00206 9.05546C7.12299 8.53973 5.9307 8.25 4.6875 8.25C3.4443 8.25 2.25201 8.53973 1.37294 9.05546C0.49386 9.57118 0 10.2707 0 11C0 11.7293 0.49386 12.4288 1.37294 12.9445C2.25201 13.4603 3.4443 13.75 4.6875 13.75ZM9.375 19.25C9.375 19.6111 9.25375 19.9687 9.01819 20.3024C8.78262 20.636 8.43734 20.9392 8.00206 21.1945C7.56679 21.4499 7.05004 21.6525 6.48133 21.7907C5.91261 21.9289 5.30307 22 4.6875 22C4.07193 22 3.46239 21.9289 2.89367 21.7907C2.32496 21.6525 1.80821 21.4499 1.37294 21.1945C0.937662 20.9392 0.592383 20.636 0.356814 20.3024C0.121245 19.9687 -1.29722e-08 19.6111 0 19.25C2.61985e-08 18.5207 0.49386 17.8212 1.37294 17.3055C2.25201 16.7897 3.4443 16.5 4.6875 16.5C5.9307 16.5 7.12299 16.7897 8.00206 17.3055C8.88114 17.8212 9.375 18.5207 9.375 19.25ZM20.3125 5.5C20.9281 5.5 21.5376 5.42887 22.1063 5.29067C22.675 5.15247 23.1918 4.94991 23.6271 4.69454C24.0623 4.43918 24.4076 4.13602 24.6432 3.80238C24.8788 3.46873 25 3.11114 25 2.75C25 2.38886 24.8788 2.03127 24.6432 1.69762C24.4076 1.36398 24.0623 1.06082 23.6271 0.805456C23.1918 0.550095 22.675 0.347532 22.1063 0.209331C21.5376 0.071131 20.9281 -5.38133e-09 20.3125 0C19.0693 1.08681e-08 17.877 0.289731 16.9979 0.805456C16.1189 1.32118 15.625 2.02065 15.625 2.75C15.625 3.47935 16.1189 4.17882 16.9979 4.69454C17.877 5.21027 19.0693 5.5 20.3125 5.5ZM25 11C25 11.7293 24.5061 12.4288 23.6271 12.9445C22.748 13.4603 21.5557 13.75 20.3125 13.75C19.0693 13.75 17.877 13.4603 16.9979 12.9445C16.1189 12.4288 15.625 11.7293 15.625 11C15.625 10.2707 16.1189 9.57118 16.9979 9.05546C17.877 8.53973 19.0693 8.25 20.3125 8.25C21.5557 8.25 22.748 8.53973 23.6271 9.05546C24.5061 9.57118 25 10.2707 25 11ZM20.3125 22C20.9281 22 21.5376 21.9289 22.1063 21.7907C22.675 21.6525 23.1918 21.4499 23.6271 21.1945C24.0623 20.9392 24.4076 20.636 24.6432 20.3024C24.8788 19.9687 25 19.6111 25 19.25C25 18.8889 24.8788 18.5313 24.6432 18.1976C24.4076 17.864 24.0623 17.5608 23.6271 17.3055C23.1918 17.0501 22.675 16.8475 22.1063 16.7093C21.5376 16.5711 20.9281 16.5 20.3125 16.5C19.0693 16.5 17.877 16.7897 16.9979 17.3055C16.1189 17.8212 15.625 18.5207 15.625 19.25C15.625 19.9793 16.1189 20.6788 16.9979 21.1945C17.877 21.7103 19.0693 22 20.3125 22Z" fill="white"/>
</svg>
