<svg width="50" height="50" viewBox="0 0 50 50" fill="none" xmlns="http://www.w3.org/2000/svg">
<rect x="1" y="1" width="48" height="48" rx="9" stroke="#696969" stroke-width="2"/>
<path d="M25 14C31.0753 14 36 18.9247 36 25C36 31.0753 31.0753 36 25 36C23.056 36.0033 21.1463 35.4889 19.467 34.5095L14.0044 36L15.4916 30.5352C14.5115 28.8554 13.9966 26.9448 14 25C14 18.9247 18.9247 14 25 14ZM21.2512 19.83L21.0312 19.8388C20.889 19.8486 20.75 19.886 20.622 19.9488C20.5027 20.0165 20.3938 20.1009 20.2986 20.1996C20.1666 20.3239 20.0918 20.4317 20.0115 20.5362C19.6046 21.0652 19.3856 21.7146 19.3889 22.382C19.3911 22.921 19.5319 23.4457 19.7519 23.9363C20.2018 24.9285 20.9421 25.979 21.9189 26.9525C22.1543 27.1868 22.3853 27.4222 22.6339 27.6411C23.8477 28.7096 25.294 29.4803 26.8579 29.8917L27.4827 29.9874C27.6862 29.9984 27.8897 29.983 28.0943 29.9731C28.4146 29.9562 28.7273 29.8695 29.0106 29.719C29.1545 29.6446 29.2951 29.5638 29.4319 29.477C29.4319 29.477 29.4785 29.4455 29.5694 29.378C29.7179 29.268 29.8092 29.1899 29.9324 29.0612C30.0248 28.9659 30.1018 28.8551 30.1634 28.729C30.2492 28.5497 30.335 28.2076 30.3702 27.9227C30.3966 27.7049 30.3889 27.5861 30.3856 27.5124C30.3812 27.3947 30.2833 27.2726 30.1766 27.2209L29.5364 26.9338C29.5364 26.9338 28.5794 26.5169 27.9942 26.2507C27.9329 26.224 27.8673 26.2087 27.8006 26.2056C27.7253 26.1977 27.6493 26.2061 27.5775 26.2302C27.5058 26.2543 27.4401 26.2936 27.3848 26.3453C27.3793 26.3431 27.3056 26.4058 26.5103 27.3694C26.4647 27.4307 26.4018 27.4771 26.3297 27.5026C26.2576 27.528 26.1796 27.5314 26.1055 27.5124C26.0338 27.4933 25.9636 27.469 25.8954 27.4398C25.759 27.3826 25.7117 27.3606 25.6182 27.321C24.9867 27.0459 24.4021 26.6736 23.8857 26.2177C23.7471 26.0967 23.6184 25.9647 23.4864 25.8371C23.0537 25.4226 22.6765 24.9538 22.3644 24.4423L22.2995 24.3378C22.2536 24.2672 22.216 24.1915 22.1873 24.1123C22.1455 23.9506 22.2544 23.8208 22.2544 23.8208C22.2544 23.8208 22.5217 23.5282 22.646 23.3698C22.767 23.2158 22.8693 23.0662 22.9353 22.9595C23.0651 22.7505 23.1058 22.536 23.0376 22.3699C22.7296 21.6175 22.4113 20.8691 22.0828 20.1248C22.0179 19.9774 21.8254 19.8718 21.6505 19.8509C21.5911 19.8436 21.5317 19.8377 21.4723 19.8333C21.3246 19.8248 21.1765 19.8263 21.029 19.8377L21.2512 19.83Z" fill="#696969"/>
</svg>
