<svg width="69" height="69" viewBox="0 0 69 69" fill="none" xmlns="http://www.w3.org/2000/svg">
<path d="M41.9093 13.4348H41.7019H30.899C29.1214 13.4348 27.4167 14.1402 26.1599 15.3957C24.9031 16.6512 24.1971 18.3539 24.1971 20.1292V30.9208C24.1971 31.742 24.5237 32.5298 25.1052 33.1107C25.6867 33.6915 26.4755 34.018 27.2981 34.018C28.1207 34.018 28.9095 33.6915 29.491 33.1107C30.0725 32.5298 30.399 31.742 30.399 30.9208V23.7264V23.2264H30.899H59.4991L67.5984 15.1002L41.9093 13.4348ZM41.9093 13.4348L42.0558 13.288L53.903 1.41725L53.9039 1.41633C54.1921 1.12601 54.5351 0.895549 54.913 0.738267C55.2909 0.580984 55.6963 0.5 56.1057 0.5C56.5152 0.5 56.9205 0.580984 57.2985 0.738268C57.6764 0.89555 58.0193 1.12601 58.3076 1.41633L58.3083 1.4171L67.5984 10.7335M41.9093 13.4348L67.5984 10.7335M67.5984 10.7335C67.5986 10.7336 67.5987 10.7337 67.5988 10.7338L67.5984 10.7335ZM15.9952 24.9326V34.518C15.9952 36.5588 16.8068 38.516 18.2512 39.9589C19.6957 41.4019 21.6546 42.2124 23.6971 42.2124H30.899C32.9415 42.2124 34.9005 41.4019 36.3449 39.9589C37.7894 38.516 38.6009 36.5588 38.6009 34.518V31.4208H62.8076V34.518C62.8076 35.3392 62.4811 36.127 61.8996 36.7079C61.3181 37.2887 60.5293 37.6152 59.7067 37.6152H56.1057H55.6057V38.1152V41.7124C55.6057 42.5336 55.2791 43.3214 54.6977 43.9022C54.1162 44.4831 53.3274 44.8096 52.5048 44.8096H48.9038H48.4038V45.3096V48.9068C48.4038 49.728 48.0772 50.5158 47.4958 51.0966C46.9142 51.6775 46.1255 52.004 45.3029 52.004H30.899H30.6921L30.5457 52.1502L15.0976 67.5822L15.0961 67.5837C14.8079 67.874 14.4649 68.1045 14.087 68.2617C13.7091 68.419 13.3037 68.5 12.8943 68.5C12.4848 68.5 12.0795 68.419 11.7015 68.2617C11.3236 68.1045 10.9807 67.874 10.6924 67.5837L10.6916 67.5829L1.40155 58.2665L15.9952 24.9326ZM15.9952 24.9326L9.79332 31.128V45.3096V45.5168L9.64669 45.6633L1.40155 53.8999C1.4014 53.9 1.40124 53.9002 1.40108 53.9003C0.823878 54.4806 0.5 55.2653 0.5 56.0832C0.5 56.9011 0.823916 57.6859 1.40118 58.2662L15.9952 24.9326Z" fill="#D80147" stroke="#D80147"/>
</svg>
