<svg width="24" height="24" viewBox="0 0 24 24" fill="none" xmlns="http://www.w3.org/2000/svg">
<path d="M23 11.9994H8.30757M3.12151 11.9994H1M3.12151 11.9994C3.12151 11.2756 3.39464 10.5815 3.88082 10.0698C4.36699 9.558 5.02639 9.2705 5.71395 9.2705C6.4015 9.2705 7.0609 9.558 7.54707 10.0698C8.03325 10.5815 8.30638 11.2756 8.30638 11.9994C8.30638 12.7231 8.03325 13.4172 7.54707 13.929C7.0609 14.4407 6.4015 14.7282 5.71395 14.7282C5.02639 14.7282 4.36699 14.4407 3.88082 13.929C3.39464 13.4172 3.12151 12.7231 3.12151 11.9994ZM23 20.2699H16.1645M16.1645 20.2699C16.1645 20.9938 15.8908 21.6887 15.4045 22.2005C14.9182 22.7124 14.2586 23 13.5709 23C12.8834 23 12.224 22.7112 11.7378 22.1995C11.2516 21.6877 10.9785 20.9936 10.9785 20.2699M16.1645 20.2699C16.1645 19.546 15.8908 18.8523 15.4045 18.3404C14.9182 17.8286 14.2586 17.541 13.5709 17.541C12.8834 17.541 12.224 17.8285 11.7378 18.3403C11.2516 18.852 10.9785 19.5461 10.9785 20.2699M10.9785 20.2699H1M23 3.72888H19.3076M14.1215 3.72888H1M14.1215 3.72888C14.1215 3.00513 14.3946 2.31103 14.8808 1.79927C15.367 1.28751 16.0264 1 16.7139 1C17.0544 1 17.3915 1.07058 17.706 1.20772C18.0206 1.34486 18.3063 1.54587 18.5471 1.79927C18.7878 2.05267 18.9788 2.3535 19.109 2.68458C19.2393 3.01566 19.3064 3.37052 19.3064 3.72888C19.3064 4.08724 19.2393 4.44209 19.109 4.77317C18.9788 5.10425 18.7878 5.40508 18.5471 5.65848C18.3063 5.91188 18.0206 6.11289 17.706 6.25003C17.3915 6.38717 17.0544 6.45775 16.7139 6.45775C16.0264 6.45775 15.367 6.17025 14.8808 5.65848C14.3946 5.14672 14.1215 4.45262 14.1215 3.72888Z" stroke="black" stroke-width="1.5" stroke-miterlimit="10" stroke-linecap="round"/>
</svg>
