<svg width="69" height="68" viewBox="0 0 69 68" fill="none" xmlns="http://www.w3.org/2000/svg">
<path d="M49.6056 32.5834H49.6054C49.2566 32.5834 48.9116 32.5715 48.5705 32.5478L48.5673 32.5476C45.2971 32.3416 41.6585 33.0151 39.4488 35.6668L39.4487 35.6668L17.3094 62.2384C16.4626 63.2516 15.4141 64.0774 14.2306 64.6631C13.0472 65.2489 11.7547 65.5818 10.4355 65.6407C9.11634 65.6995 7.79936 65.4831 6.56842 65.0051C5.33748 64.5271 4.21956 63.798 3.28583 62.8643C2.3521 61.9306 1.62303 60.8126 1.14503 59.5817C0.667033 58.3508 0.450582 57.0338 0.50946 55.7146C0.568339 54.3954 0.901256 53.103 1.48702 51.9195C2.07273 50.7361 2.89841 49.6877 3.9115 48.8409C3.91158 48.8408 3.91166 48.8408 3.91174 48.8407L30.4833 26.7014L30.4834 26.7014C33.135 24.4916 33.8085 20.853 33.6025 17.5828L33.6024 17.5817C33.4322 14.9705 33.9036 12.3573 34.9753 9.97004C36.047 7.5828 37.6865 5.49404 39.7508 3.88594C41.8151 2.27785 44.2416 1.19928 46.8185 0.744296C49.3953 0.289334 52.0443 0.471742 54.5344 1.27561C55.3072 1.52627 55.5521 2.54095 54.8856 3.21055C54.8855 3.21066 54.8854 3.21076 54.8853 3.21086L44.9889 13.0999C44.68 13.3963 44.4656 13.7773 44.3725 14.1952C44.279 14.6151 44.3123 15.0532 44.4681 15.4542L44.468 15.4542L44.4727 15.4655C45.6438 18.2745 47.8784 20.5064 50.6889 21.674L50.6889 21.6741L50.697 21.6773C51.0978 21.8357 51.537 21.8702 51.9576 21.7764C52.3757 21.6831 52.7564 21.4673 53.0511 21.1567L62.9436 11.2678L62.9437 11.2678C63.6114 10.6001 64.6229 10.8444 64.8744 11.6191C65.651 14.0257 65.8476 16.5818 65.448 19.0788C65.0485 21.5758 64.0642 23.943 62.5754 25.9871C61.0866 28.0312 59.1356 29.6944 56.8816 30.8407C54.6275 31.9871 52.1344 32.5842 49.6056 32.5834ZM13.9675 58.0874C14.7505 57.3043 15.1904 56.2423 15.1904 55.135C15.1904 54.0276 14.7505 52.9657 13.9675 52.1826C13.1845 51.3996 12.1225 50.9597 11.0151 50.9597C9.90778 50.9597 8.84578 51.3996 8.06277 52.1826C7.27976 52.9657 6.83986 54.0276 6.83986 55.135C6.83986 56.2423 7.27976 57.3043 8.06277 58.0874C8.84579 58.8704 9.90778 59.3103 11.0151 59.3103C12.1225 59.3103 13.1845 58.8704 13.9675 58.0874Z" fill="#D80147" stroke="#D80147"/>
<path d="M48.2137 39.0507L48.2137 39.0509L48.2247 39.0515C48.7056 39.0816 49.1901 39.0966 49.6782 39.0966C50.25 39.0966 50.8164 39.0754 51.3772 39.0328L65.0107 52.6663C66.6402 54.2958 67.5557 56.506 67.5557 58.8106C67.5557 61.1151 66.6402 63.3253 65.0107 64.9549C63.3811 66.5845 61.1709 67.4999 58.8664 67.4999C56.5618 67.4999 54.3516 66.5845 52.722 64.9549L36.837 49.0698L44.5263 39.8404C44.5265 39.8402 44.5267 39.84 44.5268 39.8399C44.6443 39.7 44.9019 39.4699 45.5349 39.2803C46.4084 39.0523 47.3142 38.9747 48.2137 39.0507ZM17.9384 13.1858V13.3929L18.0849 13.5394L26.3079 21.7624L21.4094 25.8433L13.5952 18.0291L13.4487 17.8827H13.2416H8.5483C8.30011 17.8827 8.0568 17.8136 7.84561 17.6832C7.63445 17.5528 7.46373 17.3663 7.35253 17.1444C7.35251 17.1444 7.35249 17.1443 7.35248 17.1443L1.10478 4.64154L1.10456 4.6411C0.978883 4.39022 0.935286 4.10617 0.979936 3.82915C1.02457 3.55222 1.15513 3.29633 1.35316 3.09767C1.35322 3.0976 1.35329 3.09754 1.35336 3.09747L3.15374 1.29709L3.15392 1.29691C3.3523 1.09834 3.60811 0.967202 3.88515 0.92207C4.1621 0.876951 4.44622 0.92007 4.69732 1.04532C4.69739 1.04536 4.69747 1.0454 4.69754 1.04544L17.2001 7.29303C17.4228 7.40463 17.6099 7.57621 17.7404 7.78844C17.8708 8.00066 17.9394 8.2451 17.9384 8.49422V8.4962V13.1858Z" fill="#D80147" stroke="#D80147"/>
</svg>
