<svg width="77" height="76" viewBox="0 0 77 76" fill="none" xmlns="http://www.w3.org/2000/svg">
<path d="M72.5159 23.2692C72.5159 21.2137 71.1456 19.1583 69.7752 18.1305L48.1927 4.76992C47.3052 4.26539 46.3018 4.00012 45.2808 4.00012C44.2599 4.00012 43.2565 4.26539 42.3689 4.76992L7.08321 25.3247C5.37032 26.0098 4 28.0653 4 30.1208V52.731C4 54.4439 5.37032 56.842 6.74063 57.8697L28.3231 71.2303C29.2107 71.7349 30.2141 72.0001 31.2351 72.0001C32.256 72.0001 33.2594 71.7349 34.147 71.2303L69.4327 50.6756C71.1456 49.6478 72.5159 47.2498 72.5159 45.5369V23.2692Z" fill="#1F1F1F" stroke="#D80147" stroke-width="7" stroke-linecap="round" stroke-linejoin="round"/>
<path d="M31.4075 71.9152V44.8515L4.34375 28.0651M31.4075 44.8515L72.1745 21.2135L31.4075 44.8515ZM45.1107 64.7211V36.9722V64.7211ZM58.8139 56.8418V29.0928V56.8418Z" fill="#1F1F1F"/>
<path d="M31.4075 71.9152V44.8515M31.4075 44.8515L4.34375 28.0651M31.4075 44.8515L72.1745 21.2135M45.1107 64.7211V36.9722M58.8139 56.8418V29.0928" stroke="#D80147" stroke-width="7" stroke-linecap="round" stroke-linejoin="round"/>
</svg>
