<svg width="50" height="50" viewBox="0 0 50 50" fill="none" xmlns="http://www.w3.org/2000/svg">
<rect x="1" y="1" width="48" height="48" rx="9" stroke="#696969" stroke-width="2"/>
<path d="M18.83 11H30.17C34.49 11 38 14.51 38 18.83V30.17C38 32.2466 37.1751 34.2382 35.7066 35.7066C34.2382 37.1751 32.2466 38 30.17 38H18.83C14.51 38 11 34.49 11 30.17V18.83C11 16.7534 11.8249 14.7618 13.2934 13.2934C14.7618 11.8249 16.7534 11 18.83 11ZM18.56 13.7C17.271 13.7 16.0349 14.212 15.1235 15.1235C14.212 16.0349 13.7 17.271 13.7 18.56V30.44C13.7 33.1265 15.8735 35.3 18.56 35.3H30.44C31.729 35.3 32.9651 34.788 33.8765 33.8765C34.788 32.9651 35.3 31.729 35.3 30.44V18.56C35.3 15.8735 33.1265 13.7 30.44 13.7H18.56ZM31.5875 15.725C32.0351 15.725 32.4643 15.9028 32.7807 16.2193C33.0972 16.5357 33.275 16.9649 33.275 17.4125C33.275 17.8601 33.0972 18.2893 32.7807 18.6057C32.4643 18.9222 32.0351 19.1 31.5875 19.1C31.1399 19.1 30.7107 18.9222 30.3943 18.6057C30.0778 18.2893 29.9 17.8601 29.9 17.4125C29.9 16.9649 30.0778 16.5357 30.3943 16.2193C30.7107 15.9028 31.1399 15.725 31.5875 15.725ZM24.5 17.75C26.2902 17.75 28.0071 18.4612 29.273 19.727C30.5388 20.9929 31.25 22.7098 31.25 24.5C31.25 26.2902 30.5388 28.0071 29.273 29.273C28.0071 30.5388 26.2902 31.25 24.5 31.25C22.7098 31.25 20.9929 30.5388 19.727 29.273C18.4612 28.0071 17.75 26.2902 17.75 24.5C17.75 22.7098 18.4612 20.9929 19.727 19.727C20.9929 18.4612 22.7098 17.75 24.5 17.75ZM24.5 20.45C23.4259 20.45 22.3957 20.8767 21.6362 21.6362C20.8767 22.3957 20.45 23.4259 20.45 24.5C20.45 25.5741 20.8767 26.6043 21.6362 27.3638C22.3957 28.1233 23.4259 28.55 24.5 28.55C25.5741 28.55 26.6043 28.1233 27.3638 27.3638C28.1233 26.6043 28.55 25.5741 28.55 24.5C28.55 23.4259 28.1233 22.3957 27.3638 21.6362C26.6043 20.8767 25.5741 20.45 24.5 20.45Z" fill="#696969"/>
</svg>
