<svg width="264" height="60" viewBox="0 0 264 60" fill="none" xmlns="http://www.w3.org/2000/svg">
<path fill-rule="evenodd" clip-rule="evenodd" d="M35.1429 33.147L23 41.5042C23.9286 40.2899 25.7857 35.9042 25.7857 28.0756C25.7857 20.247 21.6429 13.9089 19.5714 11.7184C17.4524 13.8851 13.2143 20.1899 13.2143 28.0756C13.2143 35.9613 15.119 40.3137 16.0714 41.5042C12.3333 38.9565 4.67143 33.7184 3.92857 33.147C3.18571 32.5756 3 31.7184 3 31.3613L0 0.075576C9.82857 -0.610141 17.1429 3.8851 19.5714 6.21843C25.9714 0.447004 35.1905 -0.281567 39 0.075576C38.119 9.1232 36.3143 27.8184 36.1429 30.2184C35.9714 32.6184 35.4048 33.1708 35.1429 33.147ZM10.1195 4.24123C12.5543 4.98053 15.2045 6.24875 17.2995 8.34376L17.8097 8.85397L17.2319 9.28617C14.4146 11.3936 8.87271 19.2101 10.6206 33.1365L10.8109 34.6531L9.61248 33.7043L6.18391 30.99L5.9746 30.8243L5.94959 30.5585L3.44959 3.9871L3.38646 3.31603L4.06038 3.30366C5.42371 3.27865 7.68527 3.5021 10.1195 4.24123ZM21.8455 8.27406C23.9405 6.17905 26.5907 4.91083 29.0255 4.17154C31.4597 3.43241 33.7213 3.20895 35.0846 3.23397L35.7586 3.24633L35.6954 3.91741L33.1954 30.4888L33.1704 30.7546L32.9611 30.9203L29.5325 33.6346L28.3341 34.5834L28.5245 33.0668C30.2723 19.1404 24.7304 11.3239 21.9131 9.21648L21.3353 8.78428L21.8455 8.27406Z" fill="white"/>
<path d="M49.5938 32C49.1667 32 48.9531 31.7812 48.9531 31.3438C48.9531 30.7708 48.9635 30.1979 48.9844 29.625C49.0156 29.0521 49.0365 28.4792 49.0469 27.9062C49.0781 26.6979 49.099 25.4948 49.1094 24.2969C49.1198 23.0885 49.125 21.8854 49.125 20.6875C49.125 19.1667 49.1146 17.6458 49.0938 16.125C49.0729 14.6042 49.0417 13.0885 49 11.5781V11.4219C49 11.3385 49.0104 11.151 49.0312 10.8594C49.0625 10.5677 49.1615 10.4219 49.3281 10.4219C49.474 10.4219 49.6302 10.526 49.7969 10.7344C49.9635 10.9427 50.0833 11.0938 50.1562 11.1875C51.7604 13.3646 53.3073 15.5938 54.7969 17.875C56.2865 20.1458 57.8125 22.3854 59.375 24.5938C59.4271 24.6667 59.4792 24.7031 59.5312 24.7031C59.5833 24.7031 59.6354 24.6667 59.6875 24.5938C61.2917 22.375 62.8542 20.125 64.375 17.8438C65.9062 15.5625 67.4896 13.3281 69.125 11.1406C69.1979 11.0469 69.3177 10.901 69.4844 10.7031C69.6615 10.4948 69.8177 10.3906 69.9531 10.3906C70.1302 10.3906 70.2292 10.5365 70.25 10.8281C70.2708 11.1198 70.2812 11.3073 70.2812 11.3906V11.5469C70.2396 13.0677 70.2083 14.5938 70.1875 16.125C70.1667 17.6458 70.1562 19.1667 70.1562 20.6875C70.1562 21.8854 70.1615 23.0885 70.1719 24.2969C70.1823 25.4948 70.2031 26.6979 70.2344 27.9062C70.2552 28.4792 70.276 29.0521 70.2969 29.625C70.3177 30.1979 70.3281 30.7708 70.3281 31.3438C70.3281 31.7812 70.1146 32 69.6875 32H67C66.7708 32 66.6094 31.9479 66.5156 31.8438C66.4323 31.7396 66.3802 31.5833 66.3594 31.375C66.349 31.2292 66.3438 31.0729 66.3438 30.9062C66.3438 30.7292 66.3438 30.5625 66.3438 30.4062L66.3125 28.1406C66.2917 27.0052 66.276 25.8698 66.2656 24.7344C66.2552 23.599 66.25 22.4635 66.25 21.3281C66.25 21.3073 66.2448 21.2448 66.2344 21.1406C66.2344 21.026 66.2083 20.9688 66.1562 20.9688C66.1146 20.9688 66.0677 21.0104 66.0156 21.0938C65.9635 21.1667 65.9271 21.2135 65.9062 21.2344C65.2292 22.276 64.5573 23.3281 63.8906 24.3906C63.2344 25.4427 62.5677 26.4948 61.8906 27.5469C61.6198 27.974 61.349 28.4062 61.0781 28.8438C60.8073 29.2812 60.526 29.7083 60.2344 30.125C60.1719 30.2083 60.099 30.3021 60.0156 30.4062C59.9323 30.5 59.8281 30.5469 59.7031 30.5469C59.5885 30.5469 59.4844 30.5052 59.3906 30.4219C59.3073 30.3281 59.2344 30.2396 59.1719 30.1562C58.9115 29.7917 58.651 29.4219 58.3906 29.0469C58.1406 28.6719 57.8906 28.2969 57.6406 27.9219C56.9115 26.8594 56.1823 25.7917 55.4531 24.7188C54.7344 23.6354 54 22.5677 53.25 21.5156C53.2396 21.4948 53.2083 21.4531 53.1562 21.3906C53.1042 21.3177 53.0573 21.2812 53.0156 21.2812C52.9635 21.2812 52.9323 21.3333 52.9219 21.4375C52.9115 21.5417 52.9062 21.6042 52.9062 21.625C52.9062 22.7292 52.901 23.8333 52.8906 24.9375C52.8802 26.0312 52.8646 27.1302 52.8438 28.2344L52.8125 30.4375C52.8125 30.5833 52.8125 30.7396 52.8125 30.9062C52.8229 31.0729 52.8177 31.2292 52.7969 31.375C52.776 31.5833 52.724 31.7396 52.6406 31.8438C52.5573 31.9479 52.3958 32 52.1562 32H49.5938ZM79.9312 32C79.7854 32 79.6292 31.9792 79.4625 31.9375C79.2958 31.8854 79.2125 31.7604 79.2125 31.5625C79.2125 31.4792 79.2281 31.3958 79.2594 31.3125C79.2906 31.2292 79.3219 31.151 79.3531 31.0781C80.2698 29.099 81.176 27.1198 82.0719 25.1406C82.9781 23.1615 83.8687 21.1719 84.7437 19.1719C85.4625 17.526 86.176 15.8802 86.8844 14.2344C87.5927 12.5781 88.3219 10.9375 89.0719 9.3125C89.1031 9.25 89.1552 9.21875 89.2281 9.21875C89.301 9.21875 89.3531 9.25 89.3844 9.3125C90.1344 10.9375 90.8635 12.5781 91.5719 14.2344C92.2802 15.8802 92.9937 17.526 93.7125 19.1719C94.5875 21.1719 95.4729 23.1615 96.3687 25.1406C97.275 27.1198 98.1865 29.099 99.1031 31.0781C99.1344 31.151 99.1656 31.2292 99.1969 31.3125C99.2281 31.3958 99.2437 31.4792 99.2437 31.5625C99.2437 31.7604 99.1604 31.8854 98.9937 31.9375C98.8271 31.9792 98.6708 32 98.525 32H95.3687C95.1083 32 94.9104 31.8698 94.775 31.6094C94.6917 31.4427 94.6135 31.2656 94.5406 31.0781C94.4677 30.8906 94.3948 30.7135 94.3219 30.5469C94.0927 30.026 93.8687 29.4948 93.65 28.9531C93.4417 28.4115 93.2177 27.8802 92.9781 27.3594C92.9469 27.276 92.8896 27.2344 92.8062 27.2344H85.0719C84.9885 27.2344 84.9312 27.276 84.9 27.3594C84.65 27.8802 84.4104 28.4115 84.1812 28.9531C83.9625 29.4948 83.7333 30.0312 83.4937 30.5625C83.4208 30.7292 83.3427 30.9062 83.2594 31.0938C83.1865 31.2812 83.1031 31.4583 83.0094 31.625C82.874 31.875 82.6812 32 82.4312 32H79.9312ZM86.3687 23.9688H91.5719C91.1552 22.9271 90.7333 21.8906 90.3062 20.8594C89.8792 19.8177 89.4521 18.776 89.025 17.7344C88.5875 18.776 88.1448 19.8177 87.6969 20.8594C87.2594 21.8906 86.8167 22.9271 86.3687 23.9688ZM126.284 29.625C126.284 29.8229 126.201 29.9896 126.034 30.125C125.514 30.5417 124.816 30.9115 123.941 31.2344C123.076 31.5469 122.185 31.7917 121.269 31.9688C120.352 32.1458 119.56 32.2344 118.894 32.2344C116.737 32.2344 114.79 31.8229 113.05 31C111.31 30.1667 109.93 28.9583 108.909 27.375C107.889 25.7917 107.378 23.8698 107.378 21.6094C107.378 19.2656 107.831 17.2135 108.737 15.4531C109.654 13.6927 110.967 12.3229 112.675 11.3438C114.383 10.3646 116.425 9.875 118.8 9.875C119.748 9.875 120.795 9.97396 121.941 10.1719C123.097 10.3698 124.097 10.6875 124.941 11.125C125.191 11.25 125.316 11.4167 125.316 11.625C125.316 11.6875 125.258 11.9167 125.144 12.3125C125.029 12.7083 124.909 13.1094 124.784 13.5156C124.659 13.9115 124.576 14.1615 124.534 14.2656C124.493 14.401 124.435 14.5208 124.362 14.625C124.29 14.7292 124.17 14.7812 124.003 14.7812C123.93 14.7812 123.862 14.7708 123.8 14.75C123.737 14.7292 123.675 14.7083 123.612 14.6875C122.873 14.3854 122.128 14.1615 121.378 14.0156C120.628 13.8594 119.852 13.7812 119.05 13.7812C116.737 13.7812 114.889 14.4479 113.503 15.7812C112.128 17.1042 111.441 18.9323 111.441 21.2656C111.441 23.4531 112.086 25.1771 113.378 26.4375C114.68 27.6979 116.415 28.3281 118.581 28.3281C119.258 28.3281 119.967 28.2604 120.706 28.125C121.446 27.9896 122.123 27.776 122.737 27.4844C122.81 27.4531 122.847 27.3958 122.847 27.3125C122.847 26.7292 122.842 26.1406 122.831 25.5469C122.821 24.9531 122.816 24.3646 122.816 23.7812C122.816 23.6562 122.748 23.5938 122.612 23.5938H118.956C118.529 23.5938 118.316 23.3802 118.316 22.9531V21.4219C118.316 20.9948 118.529 20.7812 118.956 20.7812H125.534C125.961 20.7812 126.175 20.9948 126.175 21.4219C126.175 22.7865 126.191 24.1562 126.222 25.5312C126.264 26.8958 126.284 28.2604 126.284 29.625ZM155.169 32.625C155.106 32.625 154.794 32.3698 154.231 31.8594C153.679 31.3385 152.966 30.6615 152.091 29.8281C151.216 28.9844 150.257 28.0625 149.216 27.0625C148.174 26.0521 147.137 25.0469 146.106 24.0469C145.075 23.0365 144.122 22.1146 143.247 21.2812C142.382 20.4375 141.679 19.7604 141.137 19.25C140.606 18.7396 140.325 18.4844 140.294 18.4844C140.242 18.4844 140.21 18.526 140.2 18.6094C140.19 18.6823 140.184 18.7344 140.184 18.7656C140.184 19.7135 140.184 20.6615 140.184 21.6094C140.195 22.5469 140.2 23.4896 140.2 24.4375C140.2 25.2292 140.2 26.0208 140.2 26.8125C140.2 27.5938 140.195 28.3854 140.184 29.1875C140.184 29.5208 140.19 29.8854 140.2 30.2812C140.221 30.6771 140.21 31.0417 140.169 31.375C140.148 31.5833 140.096 31.7396 140.012 31.8438C139.929 31.9479 139.768 32 139.528 32H136.762C136.335 32 136.122 31.7812 136.122 31.3438C136.122 30.75 136.132 30.1562 136.153 29.5625C136.184 28.9688 136.205 28.375 136.216 27.7812C136.236 26.5938 136.252 25.4062 136.262 24.2188C136.273 23.0312 136.278 21.8438 136.278 20.6562C136.278 19.4062 136.273 18.1562 136.262 16.9062C136.252 15.6562 136.231 14.4062 136.2 13.1562C136.19 12.5625 136.169 11.9688 136.137 11.375C136.117 10.7812 136.106 10.1875 136.106 9.59375C136.106 9.53125 136.137 9.5 136.2 9.5C136.262 9.5 136.315 9.52083 136.356 9.5625C138.835 11.8646 141.262 14.224 143.637 16.6406C146.012 19.0469 148.419 21.4219 150.856 23.7656C150.877 23.7865 150.908 23.8177 150.95 23.8594C150.992 23.8906 151.033 23.9062 151.075 23.9062C151.137 23.9062 151.169 23.8698 151.169 23.7969C151.179 23.7135 151.184 23.6562 151.184 23.625C151.184 22.6562 151.179 21.6927 151.169 20.7344C151.169 19.7656 151.169 18.7969 151.169 17.8281C151.169 16.9948 151.169 16.1667 151.169 15.3438C151.169 14.5104 151.174 13.6823 151.184 12.8594C151.184 12.5156 151.179 12.1615 151.169 11.7969C151.158 11.4323 151.169 11.0781 151.2 10.7344C151.221 10.5156 151.273 10.3542 151.356 10.25C151.44 10.1458 151.601 10.0938 151.841 10.0938H154.528C154.955 10.0938 155.169 10.3125 155.169 10.75C155.169 11.2917 155.158 11.8333 155.137 12.375C155.117 12.9167 155.101 13.4635 155.091 14.0156C155.07 15.151 155.054 16.2969 155.044 17.4531C155.033 18.599 155.028 19.7448 155.028 20.8906C155.028 24.7865 155.091 28.6823 155.216 32.5781L155.169 32.625ZM165.334 10.7344C165.334 10.3073 165.548 10.0938 165.975 10.0938H168.678C169.105 10.0938 169.319 10.3073 169.319 10.7344C169.319 12.4531 169.314 14.1719 169.303 15.8906C169.293 17.6094 169.287 19.3281 169.287 21.0469C169.287 22.7656 169.293 24.4844 169.303 26.2031C169.314 27.9219 169.319 29.6406 169.319 31.3594C169.319 31.7865 169.105 32 168.678 32H165.975C165.548 32 165.334 31.7865 165.334 31.3594C165.334 29.6406 165.34 27.9219 165.35 26.2031C165.36 24.4844 165.366 22.7656 165.366 21.0469C165.366 19.3281 165.36 17.6094 165.35 15.8906C165.34 14.1719 165.334 12.4531 165.334 10.7344ZM179.5 10.75C179.5 10.3125 179.714 10.0938 180.141 10.0938H193C193.427 10.0938 193.641 10.3125 193.641 10.75C193.641 11.1458 193.641 11.5625 193.641 12C193.651 12.4271 193.641 12.8385 193.609 13.2344C193.578 13.651 193.365 13.8594 192.969 13.8594H183.672C183.547 13.8594 183.484 13.9219 183.484 14.0469C183.484 14.9115 183.484 15.7812 183.484 16.6562C183.495 17.5208 183.5 18.3854 183.5 19.25C183.5 19.375 183.562 19.4375 183.688 19.4375H191.609C192.036 19.4375 192.25 19.651 192.25 20.0781V22.5312C192.25 22.9583 192.036 23.1719 191.609 23.1719H183.688C183.562 23.1719 183.5 23.2344 183.5 23.3594C183.5 24.2656 183.5 25.1719 183.5 26.0781C183.5 26.974 183.495 27.875 183.484 28.7812C183.474 29.2083 183.469 29.6406 183.469 30.0781C183.479 30.5052 183.474 30.9323 183.453 31.3594C183.422 31.7865 183.208 32 182.812 32H180.125C179.698 32 179.484 31.7812 179.484 31.3438C179.484 30.7708 179.49 30.2031 179.5 29.6406C179.521 29.0677 179.536 28.4948 179.547 27.9219C179.578 25.526 179.594 23.1354 179.594 20.75C179.594 19.0729 179.578 17.4062 179.547 15.75C179.516 14.0833 179.5 12.4167 179.5 10.75ZM202.791 10.7344C202.791 10.3073 203.004 10.0938 203.431 10.0938H206.134C206.561 10.0938 206.775 10.3073 206.775 10.7344C206.775 12.4531 206.77 14.1719 206.759 15.8906C206.749 17.6094 206.744 19.3281 206.744 21.0469C206.744 22.7656 206.749 24.4844 206.759 26.2031C206.77 27.9219 206.775 29.6406 206.775 31.3594C206.775 31.7865 206.561 32 206.134 32H203.431C203.004 32 202.791 31.7865 202.791 31.3594C202.791 29.6406 202.796 27.9219 202.806 26.2031C202.817 24.4844 202.822 22.7656 202.822 21.0469C202.822 19.3281 202.817 17.6094 202.806 15.8906C202.796 14.1719 202.791 12.4531 202.791 10.7344ZM231.034 27.0781C231.18 27.0781 231.29 27.1302 231.363 27.2344C231.446 27.3281 231.519 27.4323 231.581 27.5469C231.644 27.651 231.769 27.8958 231.956 28.2812C232.144 28.6562 232.321 29.0312 232.488 29.4062C232.654 29.7708 232.738 29.9948 232.738 30.0781C232.738 30.2344 232.649 30.3854 232.472 30.5312C231.732 31.0938 230.81 31.5208 229.706 31.8125C228.602 32.0938 227.586 32.2344 226.659 32.2344C224.472 32.2344 222.592 31.7396 221.019 30.75C219.456 29.7604 218.253 28.4219 217.409 26.7344C216.576 25.0469 216.159 23.151 216.159 21.0469C216.159 19.5365 216.378 18.1094 216.816 16.7656C217.264 15.4115 217.915 14.2188 218.769 13.1875C219.623 12.1458 220.67 11.3333 221.909 10.75C223.159 10.1562 224.586 9.85938 226.191 9.85938C227.139 9.85938 228.149 9.98958 229.222 10.25C230.295 10.5104 231.227 10.901 232.019 11.4219C232.227 11.5573 232.331 11.7135 232.331 11.8906C232.331 11.9427 232.279 12.0938 232.175 12.3438C232.081 12.5938 231.967 12.8802 231.831 13.2031C231.696 13.5156 231.566 13.8021 231.441 14.0625C231.326 14.3229 231.248 14.4948 231.206 14.5781C231.154 14.6823 231.086 14.7917 231.003 14.9062C230.93 15.0104 230.821 15.0625 230.675 15.0625C230.581 15.0625 230.493 15.0417 230.409 15C230.336 14.9479 230.258 14.901 230.175 14.8594C229.581 14.4844 228.977 14.1875 228.363 13.9688C227.758 13.7396 227.097 13.625 226.378 13.625C225.409 13.625 224.545 13.8438 223.784 14.2812C223.024 14.7083 222.378 15.2812 221.847 16C221.326 16.7188 220.93 17.5156 220.659 18.3906C220.389 19.2656 220.253 20.1406 220.253 21.0156C220.253 22.3385 220.482 23.5677 220.941 24.7031C221.409 25.8281 222.118 26.7396 223.066 27.4375C224.014 28.125 225.206 28.4688 226.644 28.4688C227.373 28.4688 228.045 28.3698 228.659 28.1719C229.284 27.974 229.899 27.6823 230.503 27.2969C230.586 27.2448 230.67 27.1979 230.753 27.1562C230.836 27.1042 230.93 27.0781 231.034 27.0781ZM241.575 21.0781C241.575 19.6198 241.825 18.224 242.325 16.8906C242.835 15.5469 243.549 14.349 244.466 13.2969C245.393 12.2448 246.486 11.4167 247.747 10.8125C249.018 10.1979 250.414 9.89062 251.934 9.89062C253.455 9.89062 254.851 10.1979 256.122 10.8125C257.393 11.4271 258.492 12.2656 259.419 13.3281C260.356 14.3802 261.08 15.5781 261.591 16.9219C262.111 18.2656 262.372 19.6667 262.372 21.125C262.372 22.5833 262.111 23.9792 261.591 25.3125C261.08 26.6354 260.356 27.8177 259.419 28.8594C258.481 29.901 257.377 30.724 256.106 31.3281C254.835 31.9323 253.445 32.2344 251.934 32.2344C250.393 32.2344 248.986 31.9375 247.716 31.3438C246.455 30.7396 245.367 29.9167 244.45 28.875C243.533 27.8333 242.825 26.6458 242.325 25.3125C241.825 23.9688 241.575 22.5573 241.575 21.0781ZM252.075 28.4688C253.408 28.4688 254.533 28.1042 255.45 27.375C256.377 26.6458 257.08 25.7135 257.559 24.5781C258.049 23.4427 258.294 22.276 258.294 21.0781C258.294 19.849 258.044 18.6667 257.544 17.5312C257.044 16.3958 256.32 15.4635 255.372 14.7344C254.434 13.9948 253.294 13.625 251.95 13.625C250.637 13.625 249.502 13.9896 248.544 14.7188C247.596 15.4479 246.867 16.3802 246.356 17.5156C245.846 18.6406 245.591 19.8125 245.591 21.0312C245.591 22.2604 245.851 23.4479 246.372 24.5938C246.903 25.7292 247.653 26.6615 248.622 27.3906C249.591 28.1094 250.742 28.4688 252.075 28.4688Z" fill="white"/>
<path d="M54.63 57L53.426 53.906H49.464L48.274 57H47L50.906 46.962H52.04L55.932 57H54.63ZM51.928 49.762C51.9 49.6873 51.8533 49.552 51.788 49.356C51.7227 49.16 51.6573 48.9593 51.592 48.754C51.536 48.5393 51.4893 48.376 51.452 48.264C51.4053 48.4507 51.354 48.642 51.298 48.838C51.2513 49.0247 51.2 49.1973 51.144 49.356C51.0973 49.5147 51.0553 49.65 51.018 49.762L49.884 52.786H53.048L51.928 49.762ZM59.479 57H58.219V48.11H55.097V47.004H62.587V48.11H59.479V57ZM69.6803 57H64.0943V47.004H69.6803V48.11H65.3543V51.232H69.4283V52.324H65.3543V55.894H69.6803V57ZM79.0696 57H77.8096V48.11H74.6456C74.5803 48.6233 74.5103 49.1647 74.4356 49.734C74.361 50.294 74.2816 50.8493 74.1976 51.4C74.123 51.9507 74.0483 52.4687 73.9736 52.954C73.899 53.4393 73.8243 53.864 73.7496 54.228C73.6283 54.8533 73.479 55.3853 73.3016 55.824C73.1243 56.2627 72.8863 56.594 72.5876 56.818C72.2983 57.042 71.9156 57.154 71.4396 57.154C71.281 57.154 71.1176 57.1353 70.9496 57.098C70.791 57.07 70.651 57.0327 70.5296 56.986V55.936C70.6323 55.9827 70.749 56.0247 70.8796 56.062C71.0103 56.09 71.1503 56.104 71.2996 56.104C71.5796 56.104 71.799 55.992 71.9576 55.768C72.1256 55.5347 72.2563 55.25 72.3496 54.914C72.443 54.5687 72.5223 54.228 72.5876 53.892C72.6436 53.6213 72.709 53.262 72.7836 52.814C72.8583 52.3567 72.9376 51.8247 73.0216 51.218C73.115 50.6113 73.2083 49.9533 73.3016 49.244C73.4043 48.5253 73.5023 47.7787 73.5956 47.004H79.0696V57ZM81.7857 57V47.004H83.0457V51.232H84.9217C85.8551 51.232 86.5971 51.358 87.1477 51.61C87.6984 51.862 88.0951 52.2027 88.3377 52.632C88.5804 53.0613 88.7017 53.542 88.7017 54.074C88.7017 54.662 88.5664 55.1753 88.2957 55.614C88.0344 56.0527 87.6377 56.3933 87.1057 56.636C86.5737 56.8787 85.8971 57 85.0757 57H81.7857ZM84.9497 55.922C85.7617 55.922 86.3731 55.7727 86.7837 55.474C87.1944 55.166 87.3997 54.6993 87.3997 54.074C87.3997 53.6447 87.2971 53.304 87.0917 53.052C86.8957 52.7907 86.6017 52.604 86.2097 52.492C85.8271 52.38 85.3464 52.324 84.7677 52.324H83.0457V55.922H84.9497ZM96.3542 57H90.7682V47.004H96.3542V48.11H92.0282V51.232H96.1022V52.324H92.0282V55.894H96.3542V57ZM108.319 57L107.115 53.906H103.153L101.963 57H100.689L104.595 46.962H105.729L109.621 57H108.319ZM105.617 49.762C105.589 49.6873 105.543 49.552 105.477 49.356C105.412 49.16 105.347 48.9593 105.281 48.754C105.225 48.5393 105.179 48.376 105.141 48.264C105.095 48.4507 105.043 48.642 104.987 48.838C104.941 49.0247 104.889 49.1973 104.833 49.356C104.787 49.5147 104.745 49.65 104.707 49.762L103.573 52.786H106.737L105.617 49.762ZM113.845 47.004C114.676 47.004 115.371 47.0833 115.931 47.242C116.5 47.4007 116.925 47.662 117.205 48.026C117.494 48.39 117.639 48.8753 117.639 49.482C117.639 49.874 117.564 50.224 117.415 50.532C117.275 50.8307 117.06 51.0827 116.771 51.288C116.491 51.484 116.146 51.6193 115.735 51.694V51.764C116.155 51.8293 116.533 51.9507 116.869 52.128C117.214 52.3053 117.485 52.5573 117.681 52.884C117.877 53.2107 117.975 53.6353 117.975 54.158C117.975 54.7647 117.835 55.2827 117.555 55.712C117.275 56.132 116.874 56.454 116.351 56.678C115.838 56.8927 115.222 57 114.503 57H110.989V47.004H113.845ZM114.097 51.26C114.956 51.26 115.544 51.1247 115.861 50.854C116.178 50.574 116.337 50.1633 116.337 49.622C116.337 49.0713 116.141 48.6793 115.749 48.446C115.366 48.2033 114.75 48.082 113.901 48.082H112.249V51.26H114.097ZM112.249 52.31V55.936H114.265C115.152 55.936 115.768 55.7633 116.113 55.418C116.458 55.0727 116.631 54.62 116.631 54.06C116.631 53.7053 116.552 53.3973 116.393 53.136C116.244 52.8747 115.987 52.674 115.623 52.534C115.268 52.3847 114.783 52.31 114.167 52.31H112.249ZM123.258 57H121.998V48.11H118.876V47.004H126.366V48.11H123.258V57ZM136.322 51.988C136.322 52.7627 136.224 53.4673 136.028 54.102C135.832 54.7273 135.538 55.2687 135.146 55.726C134.764 56.1833 134.283 56.5333 133.704 56.776C133.135 57.0187 132.472 57.14 131.716 57.14C130.932 57.14 130.251 57.0187 129.672 56.776C129.094 56.524 128.613 56.174 128.23 55.726C127.848 55.2687 127.563 54.7227 127.376 54.088C127.19 53.4533 127.096 52.7487 127.096 51.974C127.096 50.9473 127.264 50.0513 127.6 49.286C127.936 48.5207 128.445 47.9233 129.126 47.494C129.817 47.0647 130.685 46.85 131.73 46.85C132.729 46.85 133.569 47.0647 134.25 47.494C134.932 47.914 135.445 48.5113 135.79 49.286C136.145 50.0513 136.322 50.952 136.322 51.988ZM128.426 51.988C128.426 52.828 128.543 53.5513 128.776 54.158C129.01 54.7647 129.369 55.2313 129.854 55.558C130.349 55.8847 130.97 56.048 131.716 56.048C132.472 56.048 133.088 55.8847 133.564 55.558C134.05 55.2313 134.409 54.7647 134.642 54.158C134.876 53.5513 134.992 52.828 134.992 51.988C134.992 50.728 134.731 49.7433 134.208 49.034C133.686 48.3153 132.86 47.956 131.73 47.956C130.974 47.956 130.349 48.1193 129.854 48.446C129.369 48.7633 129.01 49.2253 128.776 49.832C128.543 50.4293 128.426 51.148 128.426 51.988ZM144.998 47.004V55.88H146.272V59.632H145.068V57H138.194V59.632H136.99V55.88H137.76C138.096 55.3013 138.414 54.6527 138.712 53.934C139.02 53.2153 139.291 52.464 139.524 51.68C139.758 50.8867 139.949 50.0933 140.098 49.3C140.248 48.5067 140.341 47.7413 140.378 47.004H144.998ZM141.484 48.138C141.447 48.6793 141.354 49.2907 141.204 49.972C141.064 50.6533 140.882 51.3533 140.658 52.072C140.444 52.7813 140.201 53.4673 139.93 54.13C139.669 54.7927 139.389 55.376 139.09 55.88H143.752V48.138H141.484ZM147.958 47.004H149.134V52.492C149.134 52.7253 149.129 52.982 149.12 53.262C149.12 53.5327 149.115 53.8033 149.106 54.074C149.097 54.3447 149.083 54.5873 149.064 54.802C149.055 55.0073 149.045 55.166 149.036 55.278H149.092L154.594 47.004H155.994V57H154.818V51.568C154.818 51.316 154.823 51.0453 154.832 50.756C154.841 50.4573 154.851 50.1727 154.86 49.902C154.879 49.622 154.893 49.3747 154.902 49.16C154.911 48.9453 154.921 48.7867 154.93 48.684H154.874L149.358 57H147.958V47.004ZM164.598 49.342C164.598 50.0233 164.383 50.5647 163.954 50.966C163.525 51.358 162.951 51.61 162.232 51.722V51.778C163.072 51.89 163.711 52.1513 164.15 52.562C164.589 52.9727 164.808 53.5093 164.808 54.172C164.808 54.76 164.659 55.278 164.36 55.726C164.061 56.1647 163.613 56.51 163.016 56.762C162.419 57.014 161.672 57.14 160.776 57.14C160.235 57.14 159.717 57.098 159.222 57.014C158.737 56.9393 158.284 56.7993 157.864 56.594V55.446C158.153 55.586 158.461 55.7073 158.788 55.81C159.124 55.9033 159.46 55.978 159.796 56.034C160.132 56.0807 160.454 56.104 160.762 56.104C161.658 56.104 162.335 55.936 162.792 55.6C163.259 55.264 163.492 54.788 163.492 54.172C163.492 53.5373 163.221 53.0753 162.68 52.786C162.139 52.4967 161.383 52.352 160.412 52.352H158.984V51.302H160.342C161.005 51.302 161.551 51.2273 161.98 51.078C162.419 50.9287 162.745 50.7187 162.96 50.448C163.184 50.168 163.296 49.8413 163.296 49.468C163.296 48.964 163.109 48.5767 162.736 48.306C162.363 48.0353 161.877 47.9 161.28 47.9C160.655 47.9 160.132 47.9793 159.712 48.138C159.301 48.2967 158.9 48.502 158.508 48.754L157.906 47.9C158.167 47.704 158.466 47.5313 158.802 47.382C159.147 47.2233 159.53 47.0973 159.95 47.004C160.37 46.9107 160.818 46.864 161.294 46.864C162.013 46.864 162.615 46.9713 163.1 47.186C163.595 47.4007 163.968 47.6947 164.22 48.068C164.472 48.432 164.598 48.8567 164.598 49.342ZM173.193 57L171.989 53.906H168.027L166.837 57H165.562L169.469 46.962H170.603L174.495 57H173.193ZM170.491 49.762C170.463 49.6873 170.416 49.552 170.351 49.356C170.285 49.16 170.22 48.9593 170.155 48.754C170.099 48.5393 170.052 48.376 170.015 48.264C169.968 48.4507 169.917 48.642 169.861 48.838C169.814 49.0247 169.763 49.1973 169.707 49.356C169.66 49.5147 169.618 49.65 169.581 49.762L168.447 52.786H171.611L170.491 49.762ZM182.68 43.896C182.643 44.3627 182.526 44.7547 182.33 45.072C182.143 45.3893 181.863 45.6273 181.49 45.786C181.117 45.9447 180.631 46.024 180.034 46.024C179.427 46.024 178.937 45.9447 178.564 45.786C178.2 45.6273 177.934 45.394 177.766 45.086C177.598 44.7687 177.495 44.372 177.458 43.896H178.606C178.653 44.4 178.783 44.7407 178.998 44.918C179.222 45.086 179.577 45.17 180.062 45.17C180.491 45.17 180.827 45.0813 181.07 44.904C181.322 44.7173 181.471 44.3813 181.518 43.896H182.68ZM175.876 47.004H177.052V52.492C177.052 52.7253 177.047 52.982 177.038 53.262C177.038 53.5327 177.033 53.8033 177.024 54.074C177.015 54.3447 177.001 54.5873 176.982 54.802C176.973 55.0073 176.963 55.166 176.954 55.278H177.01L182.512 47.004H183.912V57H182.736V51.568C182.736 51.316 182.741 51.0453 182.75 50.756C182.759 50.4573 182.769 50.1727 182.778 49.902C182.797 49.622 182.811 49.3747 182.82 49.16C182.829 48.9453 182.839 48.7867 182.848 48.684H182.792L177.276 57H175.876V47.004ZM194.252 57H192.992V52.338H187.868V57H186.608V47.004H187.868V51.232H192.992V47.004H194.252V57ZM203.257 57L202.053 53.906H198.091L196.901 57H195.627L199.533 46.962H200.667L204.559 57H203.257ZM200.555 49.762C200.527 49.6873 200.48 49.552 200.415 49.356C200.35 49.16 200.284 48.9593 200.219 48.754C200.163 48.5393 200.116 48.376 200.079 48.264C200.032 48.4507 199.981 48.642 199.925 48.838C199.878 49.0247 199.827 49.1973 199.771 49.356C199.724 49.5147 199.682 49.65 199.645 49.762L198.511 52.786H201.675L200.555 49.762Z" fill="#D80147"/>
</svg>
