<svg width="72" height="77" viewBox="0 0 72 77" fill="none" xmlns="http://www.w3.org/2000/svg">
<path fill-rule="evenodd" clip-rule="evenodd" d="M64.8791 61.1945L42.4615 76.623C44.1758 74.3813 47.6044 66.2846 47.6044 51.8318C47.6044 37.3791 39.956 25.678 36.1319 21.634C32.2198 25.634 24.3956 37.2736 24.3956 51.8318C24.3956 66.3901 27.9121 74.4252 29.6703 76.623C22.7692 71.9197 8.62418 62.2494 7.25275 61.1945C5.88132 60.1395 5.53846 58.5571 5.53846 57.8978L0 0.139525C18.1451 -1.12641 31.6484 7.17249 36.1319 11.4802C47.9473 0.825238 64.967 -0.519816 72 0.139525C70.3736 16.8428 67.0418 51.3571 66.7253 55.7879C66.4088 60.2187 65.3626 61.2384 64.8791 61.1945ZM18.5293 8.33592C22.9712 9.68464 27.777 11.9904 31.5644 15.7777L32.0746 16.2879L31.4968 16.7201C26.1209 20.7415 15.8365 35.3716 19.0832 61.2408L19.2736 62.7574L18.0751 61.8086L11.7455 56.7976L11.5362 56.6319L11.5112 56.3661L6.89578 7.31118L6.83264 6.64011L7.50656 6.62774C9.96788 6.58258 14.088 6.98736 18.5293 8.33592ZM40.7025 15.6493C44.4898 11.862 49.2957 9.55619 53.7375 8.20746C58.1789 6.8589 62.2989 6.45412 64.7603 6.49929L65.4342 6.51165L65.371 7.18273L60.7557 56.2377L60.7307 56.5035L60.5213 56.6692L54.1917 61.6802L52.9933 62.6289L53.1836 61.1123C56.4303 35.2431 46.146 20.6131 40.77 16.5917L40.1922 16.1595L40.7025 15.6493Z" fill="#696969"/>
</svg>
