<svg width="50" height="50" viewBox="0 0 50 50" fill="none" xmlns="http://www.w3.org/2000/svg">
<rect x="1" y="1" width="48" height="48" rx="9" stroke="#696969" stroke-width="2"/>
<path d="M36.0356 31.9989H33.4078C32.414 31.9989 32.1146 31.2085 30.3331 29.4581C28.7762 27.9848 28.1187 27.8016 27.7249 27.8016C27.1802 27.8016 27.0316 27.9486 27.0316 28.6847V31.005C27.0316 31.6325 26.8244 32 25.1546 32C23.5347 31.8931 21.9639 31.4099 20.5714 30.5902C19.179 29.7704 18.0048 28.6375 17.1456 27.2849C15.1062 24.7912 13.6868 21.8652 13 18.7389C13 18.3522 13.1497 18.0016 13.9005 18.0016H16.526C17.2009 18.0016 17.4438 18.2968 17.7087 18.9786C18.9835 22.6625 21.1587 25.867 22.042 25.867C22.3805 25.867 22.5279 25.72 22.5279 24.8911V21.0964C22.4162 19.3653 21.48 19.2194 21.48 18.593C21.4919 18.4278 21.5688 18.2735 21.6946 18.1631C21.8204 18.0527 21.9851 17.9948 22.1537 18.0016H26.2808C26.8451 18.0016 27.0316 18.2775 27.0316 18.9401V24.0623C27.0316 24.6152 27.2735 24.7984 27.4439 24.7984C27.7824 24.7984 28.0427 24.6152 28.6634 24.0069C29.9933 22.4133 31.0802 20.6384 31.89 18.7377C31.9725 18.5093 32.129 18.3137 32.3356 18.181C32.5421 18.0482 32.7873 17.9856 33.0335 18.0028H35.6602C36.4479 18.0028 36.6148 18.3895 36.4479 18.9413C35.4922 21.0425 34.3101 23.0372 32.9218 24.8911C32.6385 25.3152 32.5257 25.5357 32.9218 26.0332C33.1821 26.4199 34.1033 27.1752 34.7217 27.8932C35.6222 28.7752 36.3696 29.7951 36.935 30.9122C37.1607 31.6314 36.7853 31.9989 36.0356 31.9989Z" fill="#696969"/>
</svg>
