<svg width="20" height="20" viewBox="0 0 20 20" fill="none" xmlns="http://www.w3.org/2000/svg">
<path d="M0.0680001 1.49591L8.943 10.4552C9.20555 10.7204 9.55624 10.8779 9.92719 10.8971C10.2981 10.9163 10.6629 10.7959 10.951 10.5592L11.065 10.4552L19.934 1.50197C19.9627 1.613 19.982 1.72639 19.992 1.84213L20 2.01877V14.1314C20.0002 14.6407 19.8096 15.1313 19.4665 15.5047C19.1234 15.8782 18.6532 16.107 18.15 16.1451L18 16.1502H2C1.49542 16.1504 1.00943 15.958 0.639452 15.6117C0.269471 15.2654 0.0428433 14.7907 0.00500011 14.2828L0 14.1314V2.01877C0 1.89765 0.00999997 1.77989 0.03 1.66549L0.0680001 1.49591ZM18 0C18.1213 0 18.2397 0.0104305 18.355 0.0312911L18.525 0.0706573L10.005 8.67064L1.482 0.0686382C1.59267 0.0383566 1.706 0.0181689 1.822 0.00807499L2 0H18Z" fill="white"/>
</svg>
