<svg width="23" height="28" viewBox="0 0 23 28" fill="none" xmlns="http://www.w3.org/2000/svg">
<path fill-rule="evenodd" clip-rule="evenodd" d="M4.79167 1.93103C4.79167 1.41889 4.9936 0.927726 5.35305 0.565587C5.71249 0.203448 6.2 0 6.70833 0H18.2083C18.7167 0 19.2042 0.203448 19.5636 0.565587C19.9231 0.927726 20.125 1.41889 20.125 1.93103V5.7931H20.3358C20.7631 5.79311 21.1781 5.93697 21.515 6.20182C21.8518 6.46666 22.0912 6.83732 22.195 7.2549L22.6742 9.18593C22.745 9.47066 22.7504 9.7679 22.6901 10.0551C22.6297 10.3422 22.5052 10.6118 22.326 10.8432C22.1467 11.0746 21.9175 11.2618 21.6557 11.3905C21.3939 11.5193 21.1063 11.5862 20.815 11.5862H20.125V12.5517H21.0833C21.5917 12.5517 22.0792 12.7552 22.4386 13.1173C22.7981 13.4795 23 13.9706 23 14.4828V15.4483C23 15.9604 22.7981 16.4516 22.4386 16.8137C22.0792 17.1759 21.5917 17.3793 21.0833 17.3793H20.125V21.2414C20.125 21.7535 19.9231 22.2447 19.5636 22.6068C19.2042 22.969 18.7167 23.1724 18.2083 23.1724H13.8134L13.2461 23.744L11.6629 26.9321C11.5039 27.2528 11.2593 27.5226 10.9567 27.7112C10.654 27.8998 10.3053 27.9998 9.94942 28H4.12275C3.7448 27.9997 3.37537 27.8868 3.06092 27.6756L0.852918 26.1926C0.590495 26.0162 0.375346 25.7772 0.226561 25.497C0.0777751 25.2167 -4.63803e-05 24.9038 8.28168e-07 24.5859V17.4488C-8.38241e-05 17.3571 0.00632127 17.2654 0.0191675 17.1746L1.80933 4.55531C1.87441 4.09499 2.10215 3.67378 2.45073 3.36905C2.79932 3.06433 3.24533 2.89656 3.70683 2.89655H4.79167V1.93103ZM4.79167 4.82759H3.70683L1.91667 17.4488V24.5859L4.12275 26.069H5.75V23.4949C5.75 23.0771 5.88451 22.6705 6.13333 22.3363L11.1933 15.539L9.58333 13.917L5.47017 18.0629L4.11317 16.6957L4.79167 16.0141V4.82759ZM6.70833 14.083L8.22825 12.5517C8.58768 12.1897 9.0751 11.9863 9.58333 11.9863C10.0916 11.9863 10.579 12.1897 10.9384 12.5517L12.5484 14.1738C12.8746 14.5024 13.0722 14.9386 13.105 15.4022C13.1377 15.8658 13.0034 16.3258 12.7267 16.6977L9.34375 21.2414H18.2083V1.93103H6.70833V14.083ZM20.125 9.65517H20.815L20.3358 7.72414H20.125V9.65517ZM20.125 14.4828V15.4483H21.0833V14.4828H20.125ZM7.90625 23.1724L7.66667 23.4949V26.069H9.94942L11.3869 23.1724H7.90625ZM11.5 4.82759V3.86207H13.4167V4.82759H11.5ZM12.4583 4.82759C11.6958 4.82759 10.9646 5.13276 10.4254 5.67597C9.88623 6.21918 9.58333 6.95592 9.58333 7.72414H8.625V9.65517H16.2917V7.72414H15.3333C15.3333 6.95592 15.0304 6.21918 14.4913 5.67597C13.9521 5.13276 13.2208 4.82759 12.4583 4.82759ZM12.4583 6.75862C12.2042 6.75862 11.9604 6.86034 11.7807 7.04141C11.601 7.22248 11.5 7.46807 11.5 7.72414H13.4167C13.4167 7.46807 13.3157 7.22248 13.136 7.04141C12.9563 6.86034 12.7125 6.75862 12.4583 6.75862ZM8.90483 17.0974L7.9465 16.1319L9.3035 14.7647L10.2618 15.7302L8.90483 17.0974Z" fill="white"/>
</svg>
