<svg width="25" height="23" viewBox="0 0 25 23" fill="none" xmlns="http://www.w3.org/2000/svg">
<path d="M15 0H23.3333C24.2533 0 25 0.764111 25 1.7037V6.81482C25 7.26667 24.8244 7.70001 24.5118 8.01952C24.1993 8.33902 23.7754 8.51852 23.3333 8.51852H21.3142L19.8717 11.0741L18.4275 10.2222L20.3525 6.81482H23.3333V1.7037H15V6.81482H17.5V8.51852H15C14.0808 8.51852 13.3333 7.75526 13.3333 6.81482V1.7037C13.3333 0.764111 14.0808 0 15 0ZM11.6667 23H10V18.7407C9.99934 18.0632 9.73573 17.4136 9.26704 16.9344C8.79834 16.4553 8.16284 16.1859 7.5 16.1852H4.16667C3.50383 16.1859 2.86833 16.4553 2.39963 16.9344C1.93093 17.4136 1.66733 18.0632 1.66667 18.7407V23H0V18.7407C0.00132321 17.6115 0.440735 16.529 1.22185 15.7305C2.00296 14.932 3.062 14.4828 4.16667 14.4815H7.5C8.60466 14.4828 9.6637 14.932 10.4448 15.7305C11.2259 16.529 11.6653 17.6115 11.6667 18.7407V23ZM5.83333 5.96296C6.49637 5.96296 7.13226 6.23221 7.6011 6.71147C8.06994 7.19073 8.33333 7.84074 8.33333 8.51852C8.33333 9.19629 8.06994 9.84631 7.6011 10.3256C7.13226 10.8048 6.49637 11.0741 5.83333 11.0741C5.17029 11.0741 4.53441 10.8048 4.06557 10.3256C3.59673 9.84631 3.33333 9.19629 3.33333 8.51852C3.33333 7.84074 3.59673 7.19073 4.06557 6.71147C4.53441 6.23221 5.17029 5.96296 5.83333 5.96296ZM5.83333 4.25926C4.72826 4.25926 3.66846 4.708 2.88705 5.50677C2.10565 6.30553 1.66667 7.38889 1.66667 8.51852C1.66667 9.64814 2.10565 10.7315 2.88705 11.5303C3.66846 12.329 4.72826 12.7778 5.83333 12.7778C6.9384 12.7778 7.99821 12.329 8.77961 11.5303C9.56101 10.7315 10 9.64814 10 8.51852C10 7.38889 9.56101 6.30553 8.77961 5.50677C7.99821 4.708 6.9384 4.25926 5.83333 4.25926Z" fill="white"/>
</svg>
