<svg width="30" height="25" viewBox="0 0 30 25" fill="none" xmlns="http://www.w3.org/2000/svg">
<path d="M25 5L23.59 6.41L26.17 9H15C13.522 9.0005 12.0967 9.54922 11 10.54V3.83L13.59 6.41L15 5L10 0L5 5L6.41 6.41L9 3.83V15C9.0005 16.478 9.54922 17.9033 10.54 19H3.83L6.41 16.41L5 15L0 20L5 25L6.41 23.59L3.83 21H15C16.1591 21.002 17.2939 20.6676 18.2667 20.0375C19.2396 19.4073 20.0087 18.5085 20.4809 17.4499C20.953 16.3913 21.1078 15.2185 20.9266 14.0736C20.7454 12.9287 20.236 11.861 19.46 11H26.17L23.59 13.59L25 15L30 10L25 5ZM19 15C19 15.7911 18.7654 16.5645 18.3259 17.2223C17.8864 17.8801 17.2616 18.3928 16.5307 18.6955C15.7998 18.9983 14.9956 19.0775 14.2196 18.9231C13.4437 18.7688 12.731 18.3878 12.1716 17.8284C11.6122 17.269 11.2312 16.5563 11.0769 15.7804C10.9225 15.0044 11.0017 14.2002 11.3045 13.4693C11.6072 12.7384 12.1199 12.1136 12.7777 11.6741C13.4355 11.2346 14.2089 11 15 11C16.0605 11.0013 17.0771 11.4232 17.827 12.173C18.5768 12.9229 18.9987 13.9395 19 15Z" fill="white"/>
</svg>
