<svg width="38" height="38" viewBox="0 0 38 38" fill="none" xmlns="http://www.w3.org/2000/svg">
<path d="M35 38C35.7957 38 36.5587 37.6839 37.1213 37.1213C37.6839 36.5587 38 35.7957 38 35V28C38 27.2044 37.6839 26.4413 37.1213 25.8787C36.5587 25.3161 35.7957 25 35 25C32.66 25 30.36 24.64 28.16 23.9C27.634 23.734 27.0726 23.7152 26.5367 23.8456C26.0008 23.9761 25.5108 24.2508 25.12 24.64L22.24 27.52C17.2645 24.8048 13.1752 20.7155 10.46 15.74L13.32 12.88C14.14 12.1 14.44 10.94 14.08 9.82C13.36 7.64 13 5.34 13 3C13 2.20435 12.6839 1.44129 12.1213 0.87868C11.5587 0.316071 10.7956 0 10 0H3C2.20435 0 1.44129 0.316071 0.87868 0.87868C0.316071 1.44129 0 2.20435 0 3C0 22.3 15.7 38 35 38ZM3 2H10C10.2652 2 10.5196 2.10536 10.7071 2.29289C10.8946 2.48043 11 2.73478 11 3C11 5.56 11.4 8.06 12.18 10.44C12.28 10.72 12.26 11.12 11.94 11.44L8 15.36C11.3 21.82 16.14 26.66 22.62 30L26.52 26.06C26.8 25.78 27.18 25.7 27.54 25.8C29.94 26.6 32.44 27 35 27C35.2652 27 35.5196 27.1054 35.7071 27.2929C35.8946 27.4804 36 27.7348 36 28V35C36 35.2652 35.8946 35.5196 35.7071 35.7071C35.5196 35.8946 35.2652 36 35 36C16.8 36 2 21.2 2 3C2 2.73478 2.10536 2.48043 2.29289 2.29289C2.48043 2.10536 2.73478 2 3 2Z" fill="white"/>
</svg>
