<svg width="38" height="38" viewBox="0 0 38 38" fill="none" xmlns="http://www.w3.org/2000/svg">
<path d="M32.4623 5.52909C30.7114 3.76989 28.6261 2.37503 26.3279 1.42579C24.0297 0.476542 21.5647 -0.0081 19.0764 0.0001024C8.65025 0.0001024 0.152764 8.45508 0.152764 18.8291C0.152764 22.154 1.03116 25.384 2.67337 28.234L0 38L10.0251 35.378C12.794 36.879 15.9065 37.677 19.0764 37.677C29.5025 37.677 38 29.222 38 18.8481C38 13.8131 36.0332 9.08208 32.4623 5.52909ZM19.0764 34.485C16.2502 34.485 13.4814 33.725 11.0563 32.3L10.4834 31.958L4.52563 33.516L6.11055 27.74L5.72864 27.151C4.15813 24.6564 3.32438 21.7727 3.32261 18.8291C3.32261 10.2031 10.3879 3.17309 19.0573 3.17309C23.2583 3.17309 27.2111 4.80709 30.1709 7.77108C31.6367 9.22242 32.7982 10.9489 33.5882 12.8504C34.3782 14.7519 34.7809 16.7905 34.7729 18.8481C34.8111 27.474 27.7457 34.485 19.0764 34.485ZM27.7075 22.781C27.2301 22.553 24.9005 21.413 24.4804 21.242C24.0412 21.09 23.7357 21.014 23.4111 21.47C23.0864 21.945 22.1889 23.009 21.9216 23.313C21.6543 23.636 21.3678 23.674 20.8904 23.427C20.4131 23.199 18.8854 22.686 17.0905 21.09C15.6774 19.8361 14.7417 18.2971 14.4553 17.8221C14.1879 17.3471 14.4171 17.1001 14.6653 16.8531C14.8754 16.6441 15.1427 16.3021 15.3719 16.0361C15.601 15.7701 15.6965 15.5611 15.8492 15.2571C16.002 14.9341 15.9256 14.6681 15.8111 14.4401C15.6965 14.2121 14.7417 11.8941 14.3598 10.9441C13.9779 10.0321 13.5769 10.1461 13.2905 10.1271H12.3739C12.0492 10.1271 11.5528 10.2411 11.1136 10.7161C10.6935 11.1911 9.47136 12.3311 9.47136 14.6491C9.47136 16.9671 11.1709 19.2091 11.4 19.5131C11.6291 19.8361 14.7417 24.586 19.4774 26.619C20.604 27.113 21.4824 27.398 22.1698 27.607C23.2965 27.968 24.3276 27.911 25.1487 27.797C26.0653 27.664 27.9558 26.657 28.3377 25.555C28.7387 24.453 28.7387 23.522 28.605 23.313C28.4714 23.104 28.1849 23.009 27.7075 22.781Z" fill="white"/>
</svg>
